<?xml version="1.0" encoding="utf-8"?>
<!-- Generator: Adobe Illustrator 18.1.1, SVG Export Plug-In . SVG Version: 6.00 Build 0)  -->
<!DOCTYPE svg PUBLIC "-//W3C//DTD SVG 1.1//EN" "http://www.w3.org/Graphics/SVG/1.1/DTD/svg11.dtd">
<svg version="1.1" id="Layer_1" xmlns="http://www.w3.org/2000/svg" xmlns:xlink="http://www.w3.org/1999/xlink" x="0px" y="0px"
	 viewBox="0 0 70.7 55.3" style="enable-background:new 0 0 70.7 55.3;" xml:space="preserve">
<style type="text/css">
	.st0{fill:#FFFFFF;}
	.st1{fill:#EF9D87;stroke:#EF9D87;stroke-width:1.0441;stroke-miterlimit:10;}
	.st2{fill:#EF9D87;}
</style>
<g>
	<circle class="st0" cx="37.2" cy="27.8" r="23.4"/>
	<g>
		<g>
			<path class="st1" d="M27,29.8c0,0.6,0,1.2,0.2,1.7c0.4,2,1.1,2.5,2.7,2.2c1.4-0.2,3.8-1.8,6.2-5.5c1.5-2.4,1.9-3.5,2.1-3.5
				c0.2,0,0.3,0,0.3,0.2S37,28,35.8,29.7c-2,2.9-3.8,4.2-6.2,4.8c-2.8,0.6-4.6-1.9-5.1-4.5c-0.2-0.8-0.1-1.3-0.2-1.5
				c0-0.1-0.1-0.1-0.1-0.1c0,0.1-0.1,0.2-0.1,0.2s-0.3-0.1-0.3-0.2c0-0.2,1.1-2.1,1.4-2.6c2.2-3.4,5-6.1,7.7-6.7
				c1.5-0.3,2.7,0.5,3,1.9C36.8,24.7,29.9,28.6,27,29.8z M27.1,29.2c3.2-1.1,8-5.1,7.2-8.8c-0.1-0.7-0.6-0.9-1.2-0.7
				C30.4,20.3,27.2,26.2,27.1,29.2z"/>
		</g>
		<g>
			<path class="st1" d="M56.2,15.7l-6.6,15.4l0.1,0.1c2.7-1.6,5.5-5,7.3-8c0.7-1.1,0.7-1.2,0.9-1.3c0.1,0,0.2,0.1,0.2,0.2
				c0,0.3-0.3,0.7-1.5,2.5c-2.3,3.4-5.3,6.3-7.3,7.3c-1.4,4.2-6.6,16.1-11.4,16.8c-1.5,0.2-2.7-0.5-2.9-2.3
				c-0.6-4.1,4-7.9,11.9-13.9c0.5-1.8,1.2-3.9,2.6-7.8l-0.1-0.1c-1.1,2.2-4.1,6.8-6.9,7.2c-2.4,0.3-3.4-1.4-3.8-4
				c-0.2-1.3,0.1-1.9,0-2.7c0-0.1-0.1-0.1-0.2-0.1c-0.3,0-0.4,0.4-0.5,0.4c-0.1,0-0.2-0.1-0.2-0.3c0-0.2,0.1-0.4,1.4-2.2
				c2-2.7,6-6,9-6.4c1.6-0.2,2.8,0.3,3,2.1c0.1,0.7,0.1,1.3,0,1.8l0.1,0.1c0.5-1.2,1.1-2.7,1.6-4.2L56.2,15.7z M38.2,48.1
				c3.8-0.5,7.9-11.4,8.5-14.6c-3.1,2.5-10.9,8.1-10.3,12.9C36.6,47.5,36.9,48.3,38.2,48.1z M40.9,29.8c0.1,0.9,0.7,1.5,1.6,1.4
				c3.8-0.5,8.5-9.6,8.1-12.4c-0.2-1.1-0.6-1.8-1.8-1.7C44.7,17.7,40.4,26,40.9,29.8z"/>
		</g>
		<path class="st1" d="M24.6,27.1C12.8,45.8,3,51.2,3,51.2c12-6.4,21.3-22.8,21.3-22.8"/>
		<path class="st1" d="M39.2,24.3l-3,4c0.9-1.9,2.3-4.4,2.3-4.4L39.2,24.3z"/>
		<path class="st1" d="M57.6,23.3c0,0,5.1-8.6,9.7-18.1c0,0-8.1,14.2-10.6,18.6L57.6,23.3z"/>
	</g>
	<g>
		<path class="st2" d="M48.2,11.1c0,0-0.1-0.1-0.4-0.3c-0.3-0.2-0.7-0.4-1.2-0.6c-1.1-0.5-2.8-0.8-4.8-1.1c-1-0.1-2.1-0.2-3.3-0.2
			c-1.2,0-2.4,0.1-3.6,0.2c-1.3,0.1-2.5,0.4-3.8,0.7c-1.3,0.4-2.6,0.8-3.8,1.4c-1.2,0.6-2.4,1.2-3.4,2c-1.1,0.8-2,1.7-2.9,2.6
			c-0.4,0.5-0.8,1-1.2,1.4c-0.3,0.5-0.7,1-1,1.5c-0.3,0.5-0.6,1-0.8,1.5c-0.2,0.5-0.4,1-0.7,1.4c-0.2,0.5-0.3,0.9-0.5,1.4
			c-0.2,0.4-0.3,0.8-0.4,1.2c-0.2,0.8-0.4,1.5-0.6,2.1c-0.2,1.2-0.4,1.8-0.4,1.8s0.1-0.7,0.2-1.9c0.1-0.6,0.3-1.3,0.4-2.1
			c0.2-0.8,0.5-1.7,0.8-2.7c0.2-0.5,0.4-1,0.6-1.5c0.3-0.5,0.5-1,0.8-1.6c0.3-0.5,0.6-1,1-1.6c0.4-0.5,0.8-1,1.2-1.5
			c0.9-1,1.8-1.9,2.9-2.8c1.1-0.8,2.3-1.6,3.6-2.2c1.3-0.6,2.6-1,3.9-1.4c1.3-0.3,2.7-0.6,3.9-0.7c2.6-0.3,5-0.1,7.1,0.2
			c2,0.3,3.7,0.9,4.8,1.4c0.6,0.2,0.9,0.5,1.2,0.7C48.1,10.9,48.2,11.1,48.2,11.1z"/>
	</g>
</g>
<g>
</g>
<g>
</g>
<g>
</g>
<g>
</g>
<g>
</g>
<g>
</g>
</svg>
