<?xml version="1.0" encoding="utf-8"?>
<!-- Generator: Adobe Illustrator 18.1.1, SVG Export Plug-In . SVG Version: 6.00 Build 0)  -->
<!DOCTYPE svg PUBLIC "-//W3C//DTD SVG 1.1//EN" "http://www.w3.org/Graphics/SVG/1.1/DTD/svg11.dtd">
<svg version="1.1" id="Layer_1" xmlns="http://www.w3.org/2000/svg" xmlns:xlink="http://www.w3.org/1999/xlink" x="0px" y="0px"
	 viewBox="0 0 44.2 44.9" style="enable-background:new 0 0 44.2 44.9;" xml:space="preserve">
<style type="text/css">
	.st0{fill:#FFFFFF;}
	.st1{fill:#F0CCB7;stroke:#F0CCB7;stroke-width:1.0441;stroke-miterlimit:10;}
	.st2{fill:#F0CCB7;}
</style>
<g>
	<circle class="st0" cx="23.3" cy="28.2" r="15.8"/>
	<g>
		<g>
			<path class="st1" d="M16.5,29.6c0,0.4,0,0.8,0.1,1.2c0.3,1.3,0.8,1.7,1.8,1.5c0.9-0.2,2.6-1.2,4.2-3.7c1-1.6,1.2-2.3,1.4-2.4
				c0.1,0,0.2,0,0.2,0.2c0,0.1-1,2-1.8,3.1c-1.4,1.9-2.6,2.9-4.2,3.2c-1.9,0.4-3.1-1.3-3.5-3c-0.1-0.5-0.1-0.9-0.1-1
				c0-0.1,0-0.1,0-0.1c0,0,0,0.1-0.1,0.1c0,0-0.2-0.1-0.2-0.2c0-0.1,0.7-1.4,0.9-1.7c1.5-2.3,3.4-4.1,5.2-4.5c1-0.2,1.9,0.3,2.1,1.3
				C23.1,26.1,18.4,28.7,16.5,29.6z M16.6,29.1c2.2-0.8,5.4-3.5,4.9-5.9c-0.1-0.4-0.4-0.6-0.8-0.5C18.8,23.1,16.6,27.1,16.6,29.1z"
				/>
		</g>
		<g>
			<path class="st1" d="M36.2,20l-4.5,10.4l0.1,0.1c1.8-1.1,3.7-3.4,5-5.4c0.5-0.7,0.5-0.8,0.6-0.9c0.1,0,0.1,0,0.2,0.2
				c0,0.2-0.2,0.4-1,1.7C35,28.4,33,30.3,31.6,31c-0.9,2.8-4.5,10.9-7.7,11.3c-1,0.1-1.8-0.3-2-1.5c-0.4-2.8,2.7-5.3,8-9.4
				c0.4-1.2,0.8-2.6,1.7-5.3l-0.1-0.1c-0.8,1.5-2.7,4.6-4.6,4.8c-1.6,0.2-2.3-0.9-2.6-2.7c-0.1-0.9,0.1-1.3,0-1.8
				c0-0.1,0-0.1-0.2-0.1c-0.2,0-0.2,0.3-0.3,0.3c-0.1,0-0.2-0.1-0.2-0.2c0-0.1,0.1-0.3,0.9-1.5c1.3-1.8,4.1-4.1,6.1-4.3
				c1.1-0.2,1.9,0.2,2,1.4c0.1,0.4,0.1,0.9,0,1.2l0.1,0.1c0.3-0.8,0.8-1.8,1.1-2.8L36.2,20z M24,41.9c2.6-0.4,5.3-7.7,5.7-9.9
				c-2.1,1.7-7.4,5.5-6.9,8.7C23,41.5,23.1,42,24,41.9z M25.9,29.6c0.1,0.6,0.5,1,1,0.9c2.6-0.4,5.7-6.5,5.5-8.4
				c-0.1-0.8-0.4-1.2-1.2-1.1C28.4,21.4,25.5,26.9,25.9,29.6z"/>
		</g>
		<path class="st1" d="M14.8,27.7C6.9,40.3,0.3,44,0.3,44c8.1-4.3,14.4-15.4,14.4-15.4"/>
		<path class="st1" d="M24.7,25.8l-2,2.7c0.6-1.3,1.6-2.9,1.6-2.9L24.7,25.8z"/>
		<path class="st1" d="M37.2,25.1c0,0,3.5-5.8,6.6-12.2c0,0-5.5,9.6-7.1,12.6L37.2,25.1z"/>
	</g>
	<g>
		<path class="st2" d="M30.8,16.9c0,0-0.1-0.1-0.2-0.2c-0.2-0.1-0.5-0.3-0.8-0.4c-0.7-0.3-1.9-0.5-3.2-0.7c-1.4-0.2-3-0.1-4.7,0.1
			c-0.8,0.1-1.7,0.3-2.6,0.5c-0.9,0.3-1.7,0.5-2.5,0.9c-0.8,0.4-1.6,0.8-2.3,1.4c-0.7,0.5-1.3,1.1-1.9,1.7c-0.3,0.3-0.5,0.7-0.8,1
			c-0.2,0.3-0.5,0.7-0.7,1c-0.2,0.3-0.4,0.7-0.6,1c-0.2,0.3-0.3,0.7-0.4,1c-0.3,0.6-0.5,1.2-0.7,1.8c-0.2,0.5-0.3,1-0.4,1.4
			c-0.2,0.8-0.3,1.2-0.3,1.2s0-0.5,0.1-1.3c0-0.4,0.2-0.9,0.3-1.4c0.1-0.6,0.3-1.2,0.5-1.8c0.1-0.3,0.3-0.7,0.4-1
			c0.2-0.3,0.3-0.7,0.5-1.1c0.2-0.3,0.4-0.7,0.6-1.1c0.3-0.3,0.5-0.7,0.8-1c0.6-0.7,1.2-1.3,2-1.9c0.7-0.6,1.6-1.1,2.4-1.5
			c0.9-0.4,1.8-0.7,2.7-0.9c0.9-0.2,1.8-0.4,2.7-0.5c1.8-0.2,3.4,0,4.8,0.2c1.4,0.2,2.5,0.6,3.2,1c0.4,0.2,0.6,0.4,0.8,0.5
			C30.7,16.8,30.8,16.9,30.8,16.9z"/>
	</g>
</g>
<g>
</g>
<g>
</g>
<g>
</g>
<g>
</g>
<g>
</g>
<g>
</g>
<g>
</g>
<g>
</g>
<g>
</g>
<g>
</g>
<g>
</g>
<g>
</g>
<g>
</g>
<g>
</g>
<g>
</g>
</svg>
